# xmcd
#
# Track frame offsets:
#	150
#	65424
#	121435
#	140870
#	185464
#	202072
#	238481
#
# Disc length: 3444 seconds
#
# Revision: 1
# Processed by: cddbd v1.5.2PL0 Copyright (c) Steve Scherf et al.
# Submitted via: audiograbber 1.83.01
#
DISCID=740d7207
DTITLE=Grateful Dead - 80-09-06 State Fairgrounds, Lewiston ME
DYEAR=1900
DGENRE=
TTITLE0=Feel Like A Stranger
TTITLE1=Friend Of The Devil
TTITLE2=Far From Me
TTITLE3=Little Red Rooster
TTITLE4=China Cat Sunflower
TTITLE5=I Know You Rider
TTITLE6=Promised Land
EXTD=
EXTT0=
EXTT1=
EXTT2=
EXTT3=
EXTT4=
EXTT5=
EXTT6=
PLAYORDER=
